<?xml version="1.0" standalone="no"?>
<!DOCTYPE svg PUBLIC "-//W3C//DTD SVG 20010904//EN"
 "http://www.w3.org/TR/2001/REC-SVG-20010904/DTD/svg10.dtd">
<svg version="1.0" xmlns="http://www.w3.org/2000/svg"
 width="1595.000000pt" height="389.000000pt" viewBox="0 0 1595.000000 389.000000"
 preserveAspectRatio="xMidYMid meet">

<g transform="translate(0.000000,389.000000) scale(0.100000,-0.100000)"
fill="black" stroke="none">
<path d="M11255 3869 c-398 -21 -732 -67 -905 -126 -281 -95 -582 -284 -919
-577 -166 -145 -572 -551 -880 -881 -172 -184 -445 -455 -459 -455 -7 0 -50
32 -94 70 -117 101 -119 98 -29 -48 28 -45 51 -86 51 -91 0 -29 -326 -302
-505 -422 -108 -72 -347 -192 -445 -223 -196 -62 -407 -82 -580 -55 -126 19
-127 13 -15 -74 55 -43 159 -118 230 -166 623 -423 1118 -548 1581 -400 194
62 371 166 574 337 41 35 82 68 91 72 11 6 57 -16 164 -81 204 -122 206 -121
68 30 -54 58 -106 116 -116 127 -18 22 -17 23 89 140 125 139 347 403 524 624
582 726 915 1047 1327 1279 247 139 527 228 903 290 409 67 1081 81 1725 37
127 -9 266 -18 310 -21 44 -3 273 -21 508 -40 1200 -98 1482 -116 1476 -96
-12 34 -817 259 -1344 375 -324 71 -758 158 -960 191 -55 8 -139 22 -188 31
-269 45 -764 105 -1057 129 -443 34 -781 42 -1125 24z"/>
<path d="M3900 3067 c0 -24 56 -93 204 -249 356 -378 699 -691 1120 -1023 l76
-60 0 -459 c0 -524 -4 -568 -57 -627 -36 -39 -70 -55 -163 -73 -46 -9 -56 -15
-58 -34 -7 -48 -11 -48 463 -50 l446 -3 -3 38 c-3 38 -3 38 -58 46 -71 10
-154 50 -181 88 -48 68 -52 102 -57 466 -2 188 0 349 5 357 7 12 28 3 118 -51
241 -144 426 -242 425 -225 -1 4 -64 54 -142 112 -157 117 -229 173 -335 261
l-73 60 0 73 c0 64 5 82 35 142 40 81 117 179 164 211 50 34 88 30 162 -19
126 -81 179 -94 247 -59 60 32 87 82 87 162 0 59 -4 73 -30 110 -17 24 -50 57
-74 74 -37 26 -53 30 -121 33 -68 4 -86 0 -134 -21 -73 -34 -152 -108 -244
-232 -41 -55 -78 -101 -83 -103 -5 -2 -9 79 -9 182 l0 186 -50 0 c-38 0 -87
-15 -212 -66 -238 -96 -340 -134 -363 -134 -11 1 -65 40 -121 88 -55 48 -163
141 -239 207 -141 122 -397 342 -471 405 -23 19 -79 67 -125 106 -107 91 -149
114 -149 81z m1316 -976 c31 -14 45 -28 57 -58 20 -52 32 -113 20 -113 -15 0
-203 172 -197 181 9 15 77 9 120 -10z"/>
<path d="M12715 2520 c-226 -14 -454 -46 -550 -76 -86 -28 -246 -113 -345
-184 -189 -134 -398 -340 -735 -720 -548 -619 -753 -805 -1039 -941 -142 -67
-235 -90 -387 -96 -123 -5 -141 -3 -316 35 -41 8 -24 -13 60 -74 456 -335 835
-481 1158 -445 407 46 706 282 1146 906 50 71 100 141 111 155 11 14 47 66 82
115 229 328 418 532 591 637 110 67 424 182 602 222 231 52 333 60 727 61 360
0 457 -5 970 -50 786 -69 1136 -89 1128 -64 -7 21 -206 82 -613 188 -515 134
-1082 242 -1520 291 -370 40 -806 57 -1070 40z"/>
<path d="M595 2433 c-11 -3 -131 -50 -267 -106 -259 -105 -265 -109 -233 -154
14 -21 22 -22 93 -17 178 12 185 -22 180 -846 -3 -480 -5 -528 -21 -565 -34
-75 -78 -108 -162 -119 -76 -11 -85 -15 -85 -41 0 -50 -3 -50 455 -53 308 -3
430 -1 435 7 3 6 5 25 2 41 -4 27 -8 29 -61 35 -114 13 -155 36 -194 110 -22
39 -22 48 -25 629 l-3 589 28 29 c44 47 133 113 204 151 229 125 435 65 502
-147 22 -70 22 -79 22 -646 0 -564 0 -576 -21 -615 -33 -64 -80 -88 -216 -110
-34 -5 -38 -9 -38 -35 0 -16 4 -32 10 -35 5 -3 208 -8 450 -11 l440 -5 0 40
c0 45 0 44 -93 55 -101 12 -159 63 -177 155 -7 40 -13 629 -10 1128 0 37 49
88 153 161 163 114 312 140 445 76 61 -30 94 -69 124 -150 22 -59 23 -63 23
-649 l0 -590 -22 -41 c-33 -63 -83 -88 -215 -109 -34 -5 -38 -9 -38 -36 0 -22
6 -31 23 -37 12 -4 207 -7 432 -7 l410 0 3 37 c3 40 1 42 -80 53 -78 10 -139
63 -160 141 -7 25 -12 218 -14 544 -2 278 -5 546 -8 595 -21 351 -242 567
-539 528 -160 -22 -273 -85 -442 -247 -54 -53 -105 -96 -112 -96 -8 0 -16 8
-19 18 -40 117 -133 236 -224 286 -169 92 -371 71 -560 -57 -25 -17 -96 -80
-158 -141 -61 -60 -115 -106 -119 -103 -7 8 -9 40 -11 235 l-2 132 -42 -1
c-24 -1 -52 -3 -63 -6z"/>
<path d="M4001 2389 c-245 -48 -449 -212 -560 -450 -93 -199 -132 -494 -96
-730 61 -407 332 -705 682 -750 299 -38 549 105 722 412 74 132 114 298 75
313 -33 13 -45 4 -68 -46 -77 -175 -203 -295 -350 -334 -68 -18 -208 -18 -280
1 -185 48 -349 202 -435 408 -39 95 -71 254 -71 356 l0 81 615 0 615 0 0 39
c0 66 -29 213 -56 281 -41 102 -87 171 -173 252 -90 87 -187 139 -302 163 -76
16 -246 18 -318 4z m194 -173 c32 -14 78 -42 101 -62 75 -61 134 -213 134
-346 l0 -38 -405 -2 -405 -3 0 30 c1 128 114 327 227 397 104 63 241 73 348
24z"/>
<path d="M12145 1371 c-4 -8 1 -14 14 -18 20 -5 21 -12 21 -143 0 -131 -1
-138 -21 -143 -13 -4 -18 -10 -14 -18 13 -20 194 -6 241 18 45 23 84 89 84
141 0 50 -34 113 -75 141 -31 21 -51 25 -139 29 -74 3 -105 1 -111 -7z m182
-39 c21 -13 43 -79 43 -127 0 -63 -22 -113 -55 -121 -14 -3 -28 -4 -30 -2 -3
2 -8 61 -11 131 l-7 127 24 0 c13 0 29 -4 36 -8z"/>
<path d="M12641 1349 c-38 -98 -115 -256 -133 -276 l-21 -23 54 1 c42 0 49 2
32 9 -26 10 -27 17 -13 54 9 23 15 26 63 26 48 0 55 -3 65 -25 17 -36 15 -53
-5 -58 -10 -3 15 -5 56 -6 71 -1 73 0 58 17 -10 10 -44 81 -77 157 -33 76 -62
140 -65 143 -2 3 -9 -6 -14 -19z m8 -187 c-10 -2 -30 -2 -43 0 l-25 3 22 49
21 50 22 -50 c21 -47 21 -49 3 -52z"/>
<path d="M13423 1354 c-42 -21 -60 -71 -41 -111 7 -15 42 -47 78 -71 58 -38
65 -46 65 -74 0 -26 -5 -34 -26 -42 -37 -13 -79 11 -106 59 l-23 40 0 -64 c0
-54 2 -62 14 -52 9 8 28 10 50 6 31 -6 34 -10 26 -25 -6 -12 -7 -21 0 -25 13
-8 2 -33 -18 -38 -10 -3 -6 -5 10 -6 25 -1 58 21 58 39 0 5 -7 15 -15 24 -20
20 -19 26 5 26 54 0 101 71 81 123 -10 26 -54 64 -108 91 -57 29 -66 80 -16
92 34 9 69 -10 93 -48 l20 -33 0 54 c0 43 -3 51 -13 42 -9 -7 -24 -8 -48 -1
-44 13 -48 13 -86 -6z"/>
<path d="M12848 1350 c21 -9 22 -14 22 -150 0 -87 -4 -140 -10 -140 -5 0 -10
-3 -10 -8 0 -4 21 -5 48 -3 26 3 39 6 30 9 -16 3 -18 17 -18 114 l0 110 56
-73 c87 -113 135 -169 145 -169 5 0 9 69 9 154 0 139 2 155 18 159 9 3 -8 5
-38 5 -42 1 -50 -1 -32 -8 20 -9 22 -16 22 -91 0 -95 2 -96 -85 20 l-60 80
-60 0 c-46 0 -55 -2 -37 -9z"/>
<path d="M13190 1353 c27 -10 30 -26 30 -153 0 -127 -3 -143 -30 -153 -8 -3
21 -6 65 -6 73 0 78 1 60 15 -18 13 -20 29 -23 149 -4 133 -3 135 20 144 17 7
2 10 -57 10 -44 -1 -73 -3 -65 -6z"/>
<path d="M13633 1353 c15 -4 17 -20 17 -148 0 -127 -2 -145 -17 -154 -14 -8
-5 -10 37 -10 30 0 49 3 43 6 -9 3 -13 36 -13 116 l1 112 47 -112 c26 -61 50
-115 54 -118 4 -4 24 31 45 77 81 174 72 168 72 45 1 -103 0 -108 -21 -117
-17 -6 1 -9 62 -9 61 0 79 3 63 9 -22 9 -23 13 -23 150 0 137 1 141 23 150 16
6 3 9 -51 9 -60 1 -74 -2 -79 -16 -3 -10 -24 -56 -46 -103 -37 -80 -40 -84
-50 -60 -5 14 -26 60 -45 103 l-36 77 -50 -1 c-28 -1 -43 -3 -33 -6z"/>
<path d="M14130 1203 c-34 -82 -67 -151 -74 -155 -6 -4 13 -8 43 -8 50 0 53 1
36 14 -16 12 -18 19 -10 43 9 25 16 28 60 31 38 3 52 -1 62 -14 17 -23 17 -61
1 -67 -7 -3 20 -6 60 -6 69 -1 71 0 54 17 -10 10 -44 80 -76 155 -43 101 -63
137 -75 137 -13 0 -34 -38 -81 -147z m78 10 c5 -16 13 -36 17 -45 6 -15 1 -18
-34 -18 -23 0 -41 2 -41 5 0 14 33 85 40 85 4 0 13 -12 18 -27z"/>
<path d="M14413 1339 c15 -9 17 -27 17 -149 0 -120 -2 -140 -16 -140 -8 0 -12
-4 -9 -10 8 -13 72 -13 79 -1 4 5 1 11 -4 13 -7 2 -10 43 -8 111 l3 107 94
-120 c51 -66 97 -120 102 -120 5 0 9 67 9 150 0 131 2 150 18 159 13 8 6 10
-33 10 -39 0 -46 -2 -32 -10 14 -8 17 -24 17 -90 l0 -80 -28 33 c-15 18 -47
59 -70 91 l-43 57 -57 0 c-44 -1 -53 -3 -39 -11z"/>
<path d="M14758 1340 c21 -9 22 -14 22 -140 0 -117 -2 -132 -20 -150 l-20 -20
130 0 c96 0 132 3 134 13 10 31 13 97 5 97 -5 0 -9 -6 -9 -14 0 -7 -9 -25 -21
-40 -19 -24 -27 -27 -73 -24 l-51 3 0 130 c0 128 0 130 25 142 22 11 15 13
-60 12 -61 0 -79 -3 -62 -9z"/>
<path d="M15068 1334 c25 -17 27 -50 15 -202 -5 -72 -9 -85 -27 -92 -14 -6 8
-9 64 -9 68 0 81 2 63 11 -22 11 -23 16 -23 144 0 126 1 134 22 148 21 15 18
16 -57 16 -75 0 -78 -1 -57 -16z"/>
<path d="M15248 1334 c21 -14 22 -22 22 -140 0 -111 -2 -126 -20 -144 l-20
-20 77 0 c73 0 76 1 55 16 -18 12 -22 25 -22 69 0 30 4 56 8 59 9 5 92 -106
92 -123 0 -5 -6 -12 -12 -14 -7 -3 25 -6 72 -6 84 -1 85 -1 58 17 -22 14 -112
122 -141 168 -7 11 112 114 132 114 6 0 11 5 11 10 0 6 -26 10 -57 10 -54 -1
-57 -2 -38 -16 19 -15 18 -17 -35 -66 -87 -78 -90 -79 -90 -13 0 42 5 60 20
75 l20 20 -77 0 c-73 0 -76 -1 -55 -16z"/>
<path d="M14884 895 c-9 -23 3 -45 25 -45 25 0 34 14 26 40 -7 23 -43 27 -51
5z"/>
<path d="M12768 820 c21 -9 22 -14 22 -139 0 -121 -2 -132 -22 -151 l-22 -20
55 0 c47 1 52 2 37 14 -15 11 -18 30 -18 127 l1 114 52 -122 c29 -68 55 -123
58 -123 3 0 29 57 58 128 29 70 55 129 57 131 2 2 4 -53 4 -123 0 -122 -1
-127 -22 -136 -17 -6 -3 -9 52 -9 64 0 73 2 58 13 -16 11 -18 31 -18 150 0
116 2 136 16 136 8 0 12 5 9 10 -14 22 -135 5 -135 -19 0 -6 -16 -45 -36 -88
l-35 -78 -47 98 -46 97 -50 -1 c-41 0 -46 -2 -28 -9z"/>
<path d="M13210 819 c0 -5 7 -9 15 -9 13 0 15 -22 15 -136 0 -119 -2 -139 -17
-150 -15 -11 1 -13 108 -14 l126 0 7 38 c10 61 7 69 -14 35 -24 -41 -52 -55
-98 -51 l-37 3 -3 63 c-3 57 -1 63 15 60 10 -2 26 -19 35 -38 l18 -35 0 85 0
85 -18 -35 c-9 -19 -25 -36 -34 -38 -16 -3 -18 5 -18 60 l0 64 50 -6 c56 -7
52 -5 73 -45 l16 -30 1 52 0 52 -120 0 c-66 0 -120 -5 -120 -10z"/>
<path d="M13520 813 c26 -10 30 -26 30 -144 0 -116 -6 -140 -40 -152 -8 -3 23
-5 70 -6 60 0 79 3 63 9 -20 8 -23 16 -23 70 0 33 4 60 9 60 6 0 31 -31 58
-70 l48 -69 50 0 c41 0 47 2 34 12 -8 7 -34 40 -57 73 l-41 61 25 12 c24 10
44 46 44 77 0 9 -13 29 -29 45 -29 29 -30 29 -143 28 -62 0 -106 -3 -98 -6z
m178 -31 c17 -22 15 -72 -5 -94 -9 -10 -29 -18 -45 -18 l-28 0 0 68 0 69 33
-5 c17 -2 38 -11 45 -20z"/>
<path d="M13860 813 c26 -10 30 -26 30 -144 0 -116 -6 -140 -40 -152 -8 -3 21
-6 65 -6 59 0 75 2 63 10 -14 8 -18 23 -18 70 0 74 9 73 64 -5 34 -47 38 -59
26 -66 -10 -7 13 -10 70 -9 58 0 78 3 63 9 -17 7 -65 62 -146 167 -11 15 7 32
97 93 l58 40 -63 0 c-48 -1 -60 -3 -46 -11 9 -5 17 -14 17 -18 0 -5 -31 -34
-70 -65 l-70 -57 0 65 c0 51 4 67 18 75 12 8 -2 10 -58 10 -41 0 -68 -3 -60
-6z"/>
<path d="M14228 810 c21 -9 22 -14 22 -137 0 -130 -3 -146 -30 -156 -8 -3 44
-6 116 -6 128 -1 132 0 138 22 3 12 6 33 6 47 0 24 -1 24 -21 -8 -23 -35 -48
-45 -100 -40 -34 3 -34 3 -37 61 -3 52 -1 57 18 57 15 0 25 -10 33 -30 19 -50
27 -34 27 53 l-1 82 -17 -35 c-11 -22 -26 -36 -40 -38 -21 -3 -22 0 -22 57 l0
61 39 0 c55 0 71 -8 87 -44 l13 -31 1 48 0 47 -127 -1 c-87 0 -121 -3 -105 -9z"/>
<path d="M14546 789 c-11 -56 -7 -65 14 -32 21 35 49 46 99 41 l32 -3 -85
-138 c-48 -76 -86 -140 -86 -142 0 -3 60 -5 134 -5 148 0 146 -1 146 68 l0 37
-20 -32 c-25 -42 -48 -53 -114 -53 l-55 0 67 108 c37 59 78 124 91 145 l23 37
-120 0 -119 0 -7 -31z"/>
<path d="M14848 804 c20 -14 22 -23 22 -118 0 -124 -7 -166 -28 -166 -8 0 -13
-3 -9 -6 10 -10 135 -15 141 -5 3 5 -3 11 -14 14 -19 5 -20 14 -20 135 0 124
1 132 22 146 21 15 18 16 -57 16 -75 0 -78 -1 -57 -16z"/>
</g>
</svg>
